<?xml version="1.0" encoding="utf-8"?>
<!-- Generator: Adobe Illustrator 21.0.0, SVG Export Plug-In . SVG Version: 6.00 Build 0)  -->
<svg version="1.1" id="图层_1" xmlns="http://www.w3.org/2000/svg" xmlns:xlink="http://www.w3.org/1999/xlink" x="0px" y="0px"
	 viewBox="0 0 151 151" style="enable-background:new 0 0 151 151;" xml:space="preserve">
<style type="text/css">
	.st0{fill:#176BE2;}
	.st1{fill:#F44D5F;}
	.st2{fill:#FFFFFF;}
</style>
<path class="st0" d="M137.2,79.8l-57.4,57.4c-2.7,2.7-7,2.7-9.6,0L12.8,79.8c-2.7-2.7-2.7-7,0-9.6l57.4-57.4c2.7-2.7,7-2.7,9.6,0
	l57.4,57.4C139.8,72.8,139.8,77.2,137.2,79.8z"/>
<path class="st1" d="M137.2,79.8l-57.4,57.4c-2.7,2.7-7,2.7-9.6,0l-23.4-23.4c-1.3-1.3-4.8-4.8-4.8-4.8s3.5-3.5,4.8-4.8L69,78
	l3.1,0.9l7.3-7.3l0.2-0.2L83,73l21.2-26.2c1.3-1.3,4.8-4.8,4.8-4.8s3.4,3.4,4.8,4.8l23.4,23.4C139.8,72.8,139.8,77.2,137.2,79.8z"/>
<polygon class="st2" points="41,42 109,42 93,77 95.5,78.5 81.5,87.5 79.5,71.5 82.5,72.5 91.5,54.5 28.5,54.5 "/>
<polygon class="st2" points="108.4,108.5 42,109 58.5,73.4 56,71.8 70.1,62.9 72,78.9 69,77.9 60,95.9 121,96.1 "/>
</svg>
